<?xml version="1.0" standalone="no"?>
<!DOCTYPE svg PUBLIC "-//W3C//DTD SVG 20010904//EN"
 "http://www.w3.org/TR/2001/REC-SVG-20010904/DTD/svg10.dtd">
<svg version="1.0" xmlns="http://www.w3.org/2000/svg"
 width="512.000000pt" height="512.000000pt" viewBox="0 0 512.000000 512.000000"
 preserveAspectRatio="xMidYMid meet">
<metadata>
Created by potrace 1.14, written by Peter Selinger 2001-2017
</metadata>
<g transform="translate(0.000000,512.000000) scale(0.100000,-0.100000)"
fill="#000000" stroke="none">
<path d="M2620 4807 l0 -313 451 -569 c647 -817 662 -836 658 -840 -3 -2 -258
76 -569 174 l-565 178 -5 -1428 c-5 -1447 -7 -1506 -39 -1428 -6 15 -13 532
-18 1431 -4 773 -11 1409 -15 1413 -4 5 -910 -311 -1089 -380 -10 -4 -19 3
-27 19 -10 24 -9 25 51 48 34 13 290 109 568 214 l506 189 7 164 c10 264 7
853 -4 846 -7 -4 -10 95 -10 289 l0 296 -1260 0 -1260 0 0 -2015 c0 -1108 2
-2015 5 -2015 2 0 60 33 127 73 266 160 1666 973 1689 982 10 4 21 -6 32 -31
10 -20 17 -38 15 -39 -2 -2 -289 -169 -638 -372 -349 -203 -769 -447 -932
-543 l-298 -175 0 -487 0 -488 2560 0 2560 0 0 493 -1 492 -236 135 c-130 74
-263 150 -297 169 -92 51 -1300 762 -1310 771 -8 8 13 80 24 80 3 0 21 -10 40
-21 81 -50 1722 -1009 1758 -1028 l22 -12 0 2021 0 2020 -1250 0 -1250 0 0
-313z"/>
</g>
</svg>
